# xmcd
#
# Track frame offsets:
#	150
#	22377
#	45912
#	87772
#	114863
#	150528
#	172990
#	195240
#	214953
#	254873
#	296108
#
# Disc length: 4332 seconds
#
# Revision: 1
# Processed by: cddbd v1.5.2PL0 Copyright (c) Steve Scherf et al.
# Submitted via: audiograbber 1.83.01
#
DISCID=9510ea0b
DTITLE=Grateful Dead - 87-09-09 Providence Civic Centre, Providence RI
DYEAR=1900
DGENRE=
TTITLE0=China Cat Sunflower
TTITLE1=I Know You Rider
TTITLE2=Playing In The Band
TTITLE3=China Doll
TTITLE4=Drums
TTITLE5=Space
TTITLE6=The Wheel
TTITLE7=Gimme Some Lovin
TTITLE8=Throwing Stones
TTITLE9=Not Fade Away
TTITLE10=Not Fade Away > The Mighty Quinn
EXTD=
EXTT0=
EXTT1=
EXTT2=
EXTT3=
EXTT4=
EXTT5=
EXTT6=
EXTT7=
EXTT8=
EXTT9=
EXTT10=
PLAYORDER=
